<?xml version="1.0" encoding="utf-8"?>
<!-- Generator: Adobe Illustrator 24.0.2, SVG Export Plug-In . SVG Version: 6.00 Build 0)  -->
<svg version="1.1" id="Capa_1" xmlns="http://www.w3.org/2000/svg" xmlns:xlink="http://www.w3.org/1999/xlink" x="0px" y="0px"
	 viewBox="0 0 448 512" style="enable-background:new 0 0 448 512;" xml:space="preserve">
<style type="text/css">
	.st0{fill:#FFFFFF;}
</style>
<path class="st0" d="M448,392V24c0-13.3-10.7-24-24-24H80C35.8,0,0,35.8,0,80v368c0,35.4,28.6,64,64,64h372c6.6,0,12-5.4,12-12v-8
	c0-6.6-5.4-12-12-12h-3.3c-4-20.2-3.2-49.7,0.4-65.8C441.8,410.6,448,402,448,392z M404.3,480H64c-17.7,0-32-14.3-32-32
	s14.3-32,32-32h340.3C401.4,434.8,401.2,459.6,404.3,480z M416,384H64c-11.7,0-22.5,3.4-32,8.9V80c0-26.5,21.5-48,48-48h336V384z"/>
</svg>
