<?xml version="1.0" encoding="utf-8"?>
<!-- Generator: Adobe Illustrator 24.0.2, SVG Export Plug-In . SVG Version: 6.00 Build 0)  -->
<svg version="1.1" id="Capa_1" xmlns="http://www.w3.org/2000/svg" xmlns:xlink="http://www.w3.org/1999/xlink" x="0px" y="0px"
	 viewBox="0 0 576 512" style="enable-background:new 0 0 576 512;" xml:space="preserve">
<style type="text/css">
	.st0{fill:#FFFFFF;}
</style>
<path class="st0" d="M546.2,9.7c-2.9-6.5-8.6-9.7-14.3-9.7c-5.3,0-10.7,2.8-14,8.5C486.9,62.4,431.4,96,368,96h-80
	C182,96,96,182,96,288c0,20.9,3.4,40.9,9.6,59.7C29.3,413,1.4,489.4,0.9,490.7c-2.9,8.3,1.5,17.5,9.8,20.4
	c7.9,2.8,17.4-1.1,20.4-9.8c0.4-1.2,23.9-65.1,87.6-122.7C151.1,438.9,214.7,480,288,480c6.9,0,13.7-0.4,20.4-1.1
	C465.5,467.5,576,326.8,576,154.3C576,104.1,565.2,52.1,546.2,9.7z M305,447.1c-5.9,0.6-11.6,0.9-17,0.9
	c-63.3,0-117.6-37.2-143.5-90.6C196.3,319,268.6,288,368,288c8.8,0,16-7.2,16-16s-7.2-16-16-16c-102.8,0-179,31-234.8,70.4
	c-3.1-12.4-5.2-25.1-5.2-38.4c0-88.2,71.8-160,160-160h80c63.3,0,121-28.4,159.7-77.2c10.5,32.3,16.3,68.7,16.3,103.5
	C544,313.9,443.9,437,305,447.1L305,447.1z"/>
</svg>
